<?xml version="1.0" encoding="utf-8"?>
<!-- Generator: Adobe Illustrator 24.1.0, SVG Export Plug-In . SVG Version: 6.00 Build 0)  -->
<svg version="1.1" id="Layer_1" xmlns="http://www.w3.org/2000/svg" xmlns:xlink="http://www.w3.org/1999/xlink" x="0px" y="0px"
	 viewBox="0 0 100 100" style="enable-background:new 0 0 100 100;" xml:space="preserve">
<style type="text/css">
	.Black{fill:#727272;}
</style>
<circle class="Black" cx="67" cy="64" r="3"/>
<path class="Black" d="M50,8L50,8C26.8,8,8,26.8,8,50c0,23.2,18.8,42,42,42v0c23.2,0,42-18.8,42-42C92,26.8,73.2,8,50,8z M50,20
	c6.6,0,12,5.4,12,12c0,7.7-5.4,16-12,16s-12-8.3-12-16C38,25.4,43.4,20,50,20z M50,81L50,81c-9.9-0.3-18.5-5.5-24-13
	c4.5-6.1,13.5-10,24-10v0c1.8,0,3.6,0.1,5.3,0.3C54.5,60.1,54,62,54,64c0,6.3,4.4,11.5,10.4,12.7C60.1,79.2,55.2,80.8,50,81z M74,64
	c0,0.3,0,0.6-0.1,0.8l2.1,1.8l-0.8,1.9l-2.7-0.2c-0.4,0.5-0.8,0.9-1.2,1.2l0.2,2.7L69.6,73l-1.8-2.1C67.6,71,67.3,71,67,71
	s-0.5-0.1-0.8-0.1L64.4,73l-1.9-0.8l0.2-2.7c-0.5-0.4-0.9-0.8-1.2-1.2l-2.7,0.2L58,66.6l2.1-1.8C60,64.6,60,64.3,60,64
	s0-0.6,0.1-0.8L58,61.4l0.8-1.9l2.7,0.2c0.4-0.5,0.8-0.9,1.2-1.2l-0.2-2.7l1.9-0.8l1.8,2.1C66.4,57,66.7,57,67,57s0.6,0,0.8,0.1
	l1.8-2.1l1.9,0.8l-0.2,2.7c0.5,0.4,0.9,0.8,1.2,1.2l2.7-0.2l0.8,1.9l-2.1,1.8C74,63.4,74,63.7,74,64z"/>
</svg>
