<?xml version="1.0" encoding="utf-8"?>
<!-- Generator: Adobe Illustrator 24.1.0, SVG Export Plug-In . SVG Version: 6.00 Build 0)  -->
<svg version="1.1" id="Layer_1" xmlns="http://www.w3.org/2000/svg" xmlns:xlink="http://www.w3.org/1999/xlink" x="0px" y="0px"
	 viewBox="0 0 24 24" style="enable-background:new 0 0 24 24;" xml:space="preserve">
<style type="text/css">
	.Black{fill:#727272;}
</style>
<path class="Black" d="M22,5V3c0-0.6-0.4-1-1-1H3C2.4,2,2,2.4,2,3v2H22z"/>
<path class="Black" d="M2,7v14c0,0.6,0.4,1,1,1h18c0.6,0,1-0.4,1-1V7H2z M9,19H5v-4h4V19z M9,14H5v-4h4V14z M14,19h-4v-4h4V19z
	 M14,14h-4v-4h4V14z M19,19h-4v-4h4V19z M19,14h-4v-4h4V14z"/>
</svg>
