<?xml version="1.0" encoding="utf-8"?>
<!-- Generator: Adobe Illustrator 23.1.0, SVG Export Plug-In . SVG Version: 6.00 Build 0)  -->
<svg version="1.1" id="Layer_1" xmlns="http://www.w3.org/2000/svg" xmlns:xlink="http://www.w3.org/1999/xlink" x="0px" y="0px"
	 viewBox="0 0 32 32" style="enable-background:new 0 0 32 32;" xml:space="preserve">
<style type="text/css">
	.Black{fill:#727272;}
</style>
<path class="Black" d="M2,11v18c0,0.6,0.4,1,1,1h6c0.6,0,1-0.4,1-1V11c0-0.6-0.4-1-1-1H3C2.4,10,2,10.4,2,11z"/>
<path class="Black" d="M12,17v12c0,0.6,0.4,1,1,1h6c0.6,0,1-0.4,1-1V17c0-0.6-0.4-1-1-1h-6C12.4,16,12,16.4,12,17z"/>
<path class="Black" d="M22,3v26c0,0.6,0.4,1,1,1h6c0.6,0,1-0.4,1-1V3c0-0.6-0.4-1-1-1h-6C22.4,2,22,2.4,22,3z"/>
</svg>
