<?xml version="1.0" encoding="utf-8"?>
<!-- Generator: Adobe Illustrator 24.1.0, SVG Export Plug-In . SVG Version: 6.00 Build 0)  -->
<svg version="1.1" id="Layer_1" xmlns="http://www.w3.org/2000/svg" xmlns:xlink="http://www.w3.org/1999/xlink" x="0px" y="0px"
	 viewBox="0 0 24 24" style="enable-background:new 0 0 24 24;" xml:space="preserve">
<style type="text/css">
	.Black{fill:#727272;}
</style>
<path class="Black" d="M17,22h2c0.6,0,1-0.4,1-1V3c0-0.6-0.4-1-1-1h-2c-0.6,0-1,0.4-1,1v18C16,21.6,16.4,22,17,22z"/>
<path class="Black" d="M11,22h2c0.6,0,1-0.4,1-1v-8c0-0.6-0.4-1-1-1h-2c-0.6,0-1,0.4-1,1v8C10,21.6,10.4,22,11,22z"/>
<path class="Black" d="M5,22h2c0.6,0,1-0.4,1-1V8c0-0.6-0.4-1-1-1H5C4.4,7,4,7.4,4,8v13C4,21.6,4.4,22,5,22z"/>
</svg>
