<?xml version="1.0" encoding="utf-8"?>
<!-- Generator: Adobe Illustrator 24.1.0, SVG Export Plug-In . SVG Version: 6.00 Build 0)  -->
<svg version="1.1" id="Layer_1" xmlns="http://www.w3.org/2000/svg" xmlns:xlink="http://www.w3.org/1999/xlink" x="0px" y="0px"
	 viewBox="0 0 22 22" style="enable-background:new 0 0 22 22;" xml:space="preserve">
<style type="text/css">
	.Black{fill:#FFFFFF;}
</style>
<path class="Black" d="M4,8v11c0,0.6,0.4,1,1,1h12c0.6,0,1-0.4,1-1V8H4z M8,18H6v-8h2V18z M12,18h-2v-8h2V18z M16,18h-2v-8h2V18z"/>
<path class="Black" d="M19,7H3V6c0-0.6,0.4-1,1-1h14c0.6,0,1,0.4,1,1V7z"/>
<path class="Black" d="M8,2C7.4,2,7,2.5,7,3v1v1h2V4h4v1h2V3c0-0.6-0.4-1-1-1H8z"/>
</svg>
