<?xml version="1.0" encoding="utf-8"?>
<!-- Generator: Adobe Illustrator 24.1.0, SVG Export Plug-In . SVG Version: 6.00 Build 0)  -->
<svg version="1.1" id="Layer_1" xmlns="http://www.w3.org/2000/svg" xmlns:xlink="http://www.w3.org/1999/xlink" x="0px" y="0px"
	 viewBox="0 0 16 16" style="enable-background:new 0 0 16 16;" xml:space="preserve">
<style type="text/css">
	.Red{fill:#FF0000;}
</style>
<path class="Red" d="M2,15c0,0.5,0.5,1,1,1h10c0.5,0,1-0.5,1-1V6H2V15z M10,8h2v6h-2V8z M7,8h2v6H7V8z M4,8h2v6H4V8z"/>
<path class="Red" d="M14,3h-2V1c0-0.6-0.4-1-1-1H5C4.4,0,4,0.4,4,1v2H2C1.4,3,1,3.4,1,4v1h14V4C15,3.4,14.6,3,14,3z M6,2h4v1H6V2z
	"/>
</svg>
