<?xml version="1.0" encoding="utf-8"?>
<!-- Generator: Adobe Illustrator 23.0.6, SVG Export Plug-In . SVG Version: 6.00 Build 0)  -->
<svg version="1.1" id="Layer_1" xmlns="http://www.w3.org/2000/svg" xmlns:xlink="http://www.w3.org/1999/xlink" x="0px" y="0px"
	 viewBox="0 0 32 32" style="enable-background:new 0 0 32 32;" xml:space="preserve">
<style type="text/css">
	.Black{fill:#fffffe;}
</style>
<path class="Black" d="M31.6,17.6l-2.5-2.5c0.6-0.9,0.9-2,0.9-3.1c0-3.2-2.4-5.7-5.5-6c-1.1-1.2-2.7-2-4.5-2c-1.4,0-2.8,0.5-3.8,1.4
	c-0.7,0.6-1.7,0.6-2.4,0C12.8,4.6,11.4,4,10,4c-3.3,0-6,2.7-6,6v7c0,1.3,0.8,2.4,2,2.8V22c0,2.2,2,6,4,6s4-3.8,4-6v-0.9
	c0-0.6,0.4-1,1-1s1,0.4,1,1V22c0,2.2,1.8,6,4,6s4-3.8,4-6v-2.2c1-0.3,1.7-1.1,1.9-2.1c0.4-0.1,0.8-0.3,1.2-0.6l2.5,2.5
	c0.6,0.6,1.4,0.6,2,0C32.1,19,32.1,18.1,31.6,17.6z M23,18c-0.6,0-1,0.4-1,1v3c0,1.1-0.9,4-2,4s-2-2.9-2-4v-1
	c-0.1-1.6-1.4-2.9-3-2.9s-2.9,1.3-3,2.9v1c0,1.1-0.9,4-2,4s-2-2.9-2-4v-3c0-0.6-0.4-1-1-1s-1-0.4-1-1v-7c0-2.2,1.8-4,4-4
	c1,0,2,0.4,2.7,1.1C13.3,7.7,14.1,8,15,8s1.7-0.3,2.3-0.9C18,6.4,19,6,20,6c0.6,0,1.2,0.2,1.8,0.4C19.6,7.3,18,9.4,18,12
	c0,3.1,2.3,5.6,5.3,5.9C23.2,18,23.1,18,23,18z M24,16c-2.2,0-4-1.8-4-4c0-2.2,1.8-4,4-4s4,1.8,4,4C28,14.2,26.2,16,24,16z"/>
</svg>
