<?xml version="1.0" encoding="utf-8"?>
<!-- Generator: Adobe Illustrator 24.1.0, SVG Export Plug-In . SVG Version: 6.00 Build 0)  -->
<svg version="1.1" id="Layer_1" xmlns="http://www.w3.org/2000/svg" xmlns:xlink="http://www.w3.org/1999/xlink" x="0px" y="0px"
	 viewBox="0 0 16 16" style="enable-background:new 0 0 16 16;" xml:space="preserve">
<style type="text/css">
	.Black{fill:#FFFFFF;}
	.White{fill:#1177D7;}
</style>
<path class="White" d="M14,16H2c-1.1,0-2-0.9-2-2V2c0-1.1,0.9-2,2-2h12c1.1,0,2,0.9,2,2v12C16,15.1,15.1,16,14,16z"/>
<path class="Black" d="M30.1,9.8l-1.4-1.4c-0.2-0.2-0.2-0.5,0-0.7l0,0c0.2-0.2,0.5-0.2,0.7,0l1.4,1.4c0.2,0.2,0.2,0.5,0,0.7l0,0
	C30.6,10,30.4,10,30.1,9.8z"/>
<path class="Black" d="M13.8,8.1L12.7,7C12.9,6.7,13,6.3,13,6C13,5,12.3,4.2,11.5,4c0,0,0,0,0,0c-0.3-0.4-0.7-0.7-1.2-0.9
	C10,3.1,9.8,3,9.5,3C9.1,3,8.7,3.1,8.3,3.3C8.1,3.4,7.8,3.5,7.6,3.5c0,0,0,0-0.1,0s0,0-0.1,0c-0.3,0-0.5-0.1-0.8-0.2
	C6.3,3.1,5.9,3,5.5,3C5.2,3,5,3.1,4.7,3.1C3.9,3.4,3.2,4.1,3.1,5h0c0,0,0,0,0,0.1c0,0.1,0,0.1,0,0.2c0,0.1,0,0.1,0,0.2V8
	c0,0.7,0.4,1.2,1,1.4v1.1C4,11.8,4.7,13,5.5,13S7,11.8,7,10.5v-1C7,9.1,7.2,9,7.5,9S8,9.1,8,9.5v1C8,11.8,8.7,13,9.5,13
	s1.5-1.1,1.5-2.5V9.3c0.6-0.2,1-0.7,1-1.4V7.7c0,0,0,0,0,0l1.1,1.1c0.2,0.2,0.5,0.2,0.7,0C14,8.6,14,8.3,13.8,8.1z M10.5,8.5
	C10.2,8.5,10,8.7,10,9v1.5c0,1.3-0.2,1.5-0.5,1.5S9,11.8,9,10.5v-1C9,8.7,8.3,8,7.6,8c0,0,0,0-0.1,0s0,0-0.1,0C6.7,8,6,8.7,6,9.5v1
	C6,11.8,5.8,12,5.5,12S5,11.8,5,10.5V9c0-0.3-0.2-0.5-0.5-0.5S4,8.2,4,8V5.5c0-0.1,0-0.2,0-0.3c0,0,0,0,0,0C4.2,4.5,4.8,4,5.5,4
	c0,0,0.1,0,0.1,0C6,4,6.4,4.1,6.7,4.3C7,4.4,7.2,4.5,7.4,4.5c0,0,0,0,0.1,0c0,0,0,0,0.1,0c0.2,0,0.5-0.1,0.7-0.2C8.6,4.1,9,4,9.4,4
	c0,0,0.1,0,0.1,0c0.2,0,0.4,0.1,0.6,0.2C9.5,4.5,9,5.2,9,6c0,1.1,0.9,2,2,2C11,8.2,10.8,8.5,10.5,8.5z M10,6c0-0.6,0.4-1,1-1
	s1,0.4,1,1s-0.4,1-1,1S10,6.5,10,6z"/>
</svg>
