<?xml version="1.0" encoding="utf-8"?>
<!-- Generator: Adobe Illustrator 23.0.6, SVG Export Plug-In . SVG Version: 6.00 Build 0)  -->
<svg version="1.1" id="Layer_1" xmlns="http://www.w3.org/2000/svg" xmlns:xlink="http://www.w3.org/1999/xlink" x="0px" y="0px"
	 viewBox="0 0 32 32" style="enable-background:new 0 0 32 32;" xml:space="preserve">
<style type="text/css">
	.Black{fill:#fffffe;}
</style>
<path class="Black" d="M22,4c-1.4,0-2.8,0.5-3.8,1.4c-0.7,0.6-1.7,0.6-2.4,0C14.8,4.6,13.4,4,12,4c-3.3,0-6,2.7-6,6v2h2h18h2v-2
	C28,6.7,25.3,4,22,4z M8,10c0-2.2,1.8-4,4-4c1,0,2,0.4,2.7,1.1C15.3,7.7,16.1,8,17,8c0.9,0,1.7-0.3,2.3-0.9C20,6.4,21,6,22,6
	c2.2,0,4,1.8,4,4H8z"/>
<path class="Black" d="M26,16H8c-1.1,0-2-0.9-2-2l0,0h22l0,0C28,15.1,27.1,16,26,16z"/>
<path class="Black" d="M22,20H12c-1.1,0-2-0.9-2-2l0,0h14l0,0C24,19.1,23.1,20,22,20z"/>
<path class="Black" d="M20,24h-6c-1.1,0-2-0.9-2-2l0,0h10l0,0C22,23.1,21.1,24,20,24z"/>
<path class="Black" d="M18,28h-2c-1.1,0-2-0.9-2-2l0,0h6l0,0C20,27.1,19.1,28,18,28z"/>
</svg>
