<?xml version="1.0" encoding="utf-8"?>
<!-- Generator: Adobe Illustrator 24.1.0, SVG Export Plug-In . SVG Version: 6.00 Build 0)  -->
<svg version="1.1" id="Layer_1" xmlns="http://www.w3.org/2000/svg" xmlns:xlink="http://www.w3.org/1999/xlink" x="0px" y="0px"
	 viewBox="0 0 24 24" style="enable-background:new 0 0 24 24;" xml:space="preserve">
<style type="text/css">
	.Black{fill:#727272;}
</style>
<path class="Black" d="M12,2C6.5,2,2,6.5,2,12s4.5,10,10,10s10-4.5,10-10S17.5,2,12,2z M12,5c1.7,0,3,1.3,3,3c0,2.2-1.3,4-3,4
	s-3-1.8-3-4C9,6.3,10.3,5,12,5z M12,19c-2.2,0-4.2-1-5.5-2.6C7.5,15,9.6,14,12,14s4.5,1,5.5,2.4C16.2,18,14.2,19,12,19z"/>
</svg>
