<?xml version="1.0" encoding="utf-8"?>
<!-- Generator: Adobe Illustrator 23.0.6, SVG Export Plug-In . SVG Version: 6.00 Build 0)  -->
<svg version="1.1" id="Layer_1" xmlns="http://www.w3.org/2000/svg" xmlns:xlink="http://www.w3.org/1999/xlink" x="0px" y="0px"
	 viewBox="0 0 32 32" style="enable-background:new 0 0 32 32;" xml:space="preserve">
<style type="text/css">
	.Black{fill:#fffffe;}
</style>
<path class="Black" d="M30,14h-2v-4c0-3.3-2.7-6-6-6c-1.4,0-2.8,0.5-3.8,1.4c-0.7,0.6-1.7,0.6-2.4,0C14.8,4.6,13.4,4,12,4
	c-3.3,0-6,2.7-6,6v4H4v2h2v1c0,1.3,0.8,2.4,2,2.8V22c0,2.2,2,6,4,6s4-3.8,4-6v-0.9c0-0.6,0.4-1,1-1c0.6,0,1,0.4,1,1V22
	c0,2.2,1.8,6,4,6s4-3.8,4-6v-2.2c1.2-0.4,2-1.5,2-2.8v-1h2V14z M8,10c0-2.2,1.8-4,4-4c1,0,2,0.4,2.7,1.1C15.3,7.7,16.1,8,17,8
	s1.7-0.3,2.3-0.9C20,6.4,21,6,22,6c2.2,0,4,1.8,4,4v4h-6v-2h-6v2H8V10z M26,17c0,0.6-0.4,1-1,1c-0.6,0-1,0.4-1,1v3c0,1.1-0.9,4-2,4
	c-1.1,0-2-2.9-2-4v-1c-0.1-1.6-1.4-2.9-3-2.9c-1.6,0-2.9,1.3-3,2.9v1c0,1.1-0.9,4-2,4c-1.1,0-2-2.9-2-4v-3c0-0.6-0.4-1-1-1
	c-0.6,0-1-0.4-1-1v-1h18V17z"/>
</svg>
