<?xml version="1.0" encoding="utf-8"?>
<!-- Generator: Adobe Illustrator 24.1.0, SVG Export Plug-In . SVG Version: 6.00 Build 0)  -->
<svg version="1.1" id="Layer_1" xmlns="http://www.w3.org/2000/svg" xmlns:xlink="http://www.w3.org/1999/xlink" x="0px" y="0px"
	 viewBox="0 0 24 24" style="enable-background:new 0 0 24 24;" xml:space="preserve">
<style type="text/css">
	.Black{fill:#727272;}
</style>
<path class="Black" d="M19,3h-4.2c-0.4-1.2-1.5-2-2.8-2S9.6,1.8,9.2,3H5C3.9,3,3,3.9,3,5v15c0,1.1,0.9,2,2,2h14c1.1,0,2-0.9,2-2V5
	C21,3.9,20.1,3,19,3z M12,3c0.5,0,1,0.5,1,1s-0.5,1-1,1s-1-0.5-1-1S11.5,3,12,3z M12,7c1.7,0,3,1.3,3,3c0,2.2-1.3,4-3,4s-3-1.8-3-4
	C9,8.3,10.3,7,12,7z M6,19c0-2,4-3.1,6-3.1s6,1.1,6,3.1H6z"/>
</svg>
