<?xml version="1.0" encoding="utf-8"?>
<!-- Generator: Adobe Illustrator 24.1.0, SVG Export Plug-In . SVG Version: 6.00 Build 0)  -->
<svg version="1.1" id="Layer_1" xmlns="http://www.w3.org/2000/svg" xmlns:xlink="http://www.w3.org/1999/xlink" x="0px" y="0px"
	 viewBox="0 0 24 24" style="enable-background:new 0 0 24 24;" xml:space="preserve">
<style type="text/css">
	.Black{fill:#727272;}
</style>
<path class="Black" d="M17.4,13.3C17.4,13.3,17.4,13.3,17.4,13.3C17.3,13.3,17.3,13.3,17.4,13.3c-0.7-0.1-1.3-0.2-1.8-0.3
	c0,0,0,0,0,0c-0.2,0-0.4,0-0.5,0s-0.3,0-0.5,0c0,0,0,0,0,0c-0.5,0-1.1,0.1-1.7,0.2c0,0,0,0-0.1,0c0,0,0,0,0,0
	C10.4,13.8,8,14.8,8,16.5V19h7h7v-2.5C22,14.8,19.6,13.8,17.4,13.3z"/>
<path class="Black" d="M7.6,14C7.5,14,7.5,14,7.6,14C5.7,14,2,14.9,2,16.8V19h4v-2C6,16,6.6,14.9,7.6,14z"/>
<path class="Black" d="M15,4c-1.7,0-3,1.3-3,3c0,2.2,1.3,4,3,4s3-1.8,3-4C18,5.3,16.7,4,15,4z"/>
<path class="Black" d="M7.5,6C6.1,6,5,7.1,5,8.5C5,10.4,6.1,12,7.5,12S10,10.4,10,8.5C10,7.1,8.9,6,7.5,6z"/>
</svg>
