<?xml version="1.0" encoding="utf-8"?>
<!-- Generator: Adobe Illustrator 23.1.0, SVG Export Plug-In . SVG Version: 6.00 Build 0)  -->
<svg version="1.1" id="Layer_1" xmlns="http://www.w3.org/2000/svg" xmlns:xlink="http://www.w3.org/1999/xlink" x="0px" y="0px"
	 viewBox="0 0 32 32" style="enable-background:new 0 0 32 32;" xml:space="preserve">
<style type="text/css">
	.Black{fill:#727272;}
</style>
<path class="Black" d="M20,4c-3.3,0-6,2.7-6,6s2.7,6,6,6s6-2.7,6-6S23.3,4,20,4z"/>
<path class="Black" d="M8,8c-2.2,0-4,1.8-4,4s1.8,4,4,4s4-1.8,4-4S10.2,8,8,8z"/>
<g>
	<g>
		<path class="Black" d="M29.7,24c-1.1-3.4-5-6-9.7-6s-8.6,2.6-9.7,6c-0.2,0.6-0.3,1.3-0.3,2h2h16h2C30,25.3,29.9,24.6,29.7,24z"/>
	</g>
	<g>
		<path class="Black" d="M29.7,24c-1.1-3.4-5-6-9.7-6s-8.6,2.6-9.7,6c-0.2,0.6-0.3,1.3-0.3,2h2h16h2C30,25.3,29.9,24.6,29.7,24z"/>
	</g>
</g>
<g>
	<g>
		<path class="Black" d="M9.5,18.1C9,18,8.5,18,8,18c-4.4,0-8,2.7-8,6h2.3h3.9h2c0.2-0.7,0.4-1.4,0.8-2c0.3-0.6,0.7-1.2,1.2-1.7
			c0.5-0.6,1-1.1,1.6-1.5C11.1,18.4,10.3,18.2,9.5,18.1z"/>
	</g>
	<g>
		<path class="Black" d="M9.5,18.1C9,18,8.5,18,8,18c-4.4,0-8,2.7-8,6h2.3h3.9h2c0.2-0.7,0.4-1.4,0.8-2c0.3-0.6,0.7-1.2,1.2-1.7
			c0.5-0.6,1-1.1,1.6-1.5C11.1,18.4,10.3,18.2,9.5,18.1z"/>
	</g>
</g>
</svg>
