<?xml version="1.0" encoding="utf-8"?>
<!-- Generator: Adobe Illustrator 23.0.6, SVG Export Plug-In . SVG Version: 6.00 Build 0)  -->
<svg version="1.1" id="Layer_1" xmlns="http://www.w3.org/2000/svg" xmlns:xlink="http://www.w3.org/1999/xlink" x="0px" y="0px"
	 viewBox="0 0 32 32" style="enable-background:new 0 0 32 32;" xml:space="preserve">
<style type="text/css">
	.Black{fill:#fffffe;}
</style>
<path class="Black" d="M30,16c-0.5,0-1.2-0.2-2-0.5V10c0-3.3-2.7-6-6-6c-1.4,0-2.8,0.5-3.8,1.4c-0.7,0.6-1.7,0.6-2.4,0
	C14.8,4.6,13.4,4,12,4c-3.3,0-6,2.7-6,6v5.4C5.2,15.8,4.5,16,4,16v2c0.5,0,1.2-0.2,2-0.5c0.2,1.1,0.9,1.9,2,2.3V22c0,2.2,2,6,4,6
	s4-3.8,4-6v-0.9c0-0.6,0.4-1,1-1s1,0.4,1,1V22c0,2.2,1.8,6,4,6s4-3.8,4-6v-2.2c1-0.3,1.8-1.2,2-2.3c0.8,0.3,1.5,0.5,2,0.5V16z M8,10
	c0-2.2,1.8-4,4-4c1,0,2,0.4,2.7,1.1C15.3,7.7,16.1,8,17,8s1.7-0.3,2.3-0.9C20,6.4,21,6,22,6c2.2,0,4,1.8,4,4v4.6
	c-2.5-1.2-5.7-2.6-9-2.6c-3.2,0-6.5,1.4-9,2.5V10z M26,17c0,0.6-0.4,1-1,1s-1,0.4-1,1v3c0,1.1-0.9,4-2,4s-2-2.9-2-4v-1
	c-0.1-1.6-1.4-2.9-3-2.9s-2.9,1.3-3,2.9v1c0,1.1-0.9,4-2,4s-2-2.9-2-4v-3c0-0.6-0.4-1-1-1s-1-0.4-1-1v-0.2c2.8-1.2,6.3-2.8,9-2.8
	s6.2,1.6,9,2.8V17z"/>
</svg>
