<?xml version="1.0" encoding="utf-8"?>
<!-- Generator: Adobe Illustrator 23.0.6, SVG Export Plug-In . SVG Version: 6.00 Build 0)  -->
<svg version="1.1" id="Layer_1" xmlns="http://www.w3.org/2000/svg" xmlns:xlink="http://www.w3.org/1999/xlink" x="0px" y="0px"
	 viewBox="0 0 32 32" style="enable-background:new 0 0 32 32;" xml:space="preserve">
<style type="text/css">
	.Black{fill:#fffffe;}
</style>
<path class="Black" d="M22,4c-1.4,0-2.8,0.5-3.8,1.4c-0.7,0.6-1.7,0.6-2.4,0C14.8,4.6,13.4,4,12,4c-3.3,0-6,2.7-6,6v7
	c0,1.3,0.8,2.4,2,2.8V22c0,2.2,2,6,4,6s4-3.8,4-6v-0.9c0-0.6,0.4-1,1-1s1,0.4,1,1V22c0,2.2,1.8,6,4,6s4-3.8,4-6v-2.2
	c1.2-0.4,2-1.5,2-2.8v-7C28,6.7,25.3,4,22,4z M25,18c-0.6,0-1,0.4-1,1v3c0,1.1-0.9,4-2,4s-2-2.9-2-4v-1l0,0c-0.1-1.6-1.4-2.9-3-2.9
	s-2.9,1.3-3,2.9l0,0v1c0,1.1-0.9,4-2,4s-2-2.9-2-4v-3c0-0.6-0.4-1-1-1s-1-0.4-1-1v-7c0-2.2,1.8-4,4-4c1,0,2,0.4,2.7,1.1
	C15.3,7.7,16.1,8,17,8s1.7-0.3,2.3-0.9C20,6.4,21,6,22,6c2.2,0,4,1.8,4,4v7C26,17.6,25.6,18,25,18z"/>
<path class="Black" d="M22,11v1H12v-1c0-0.6-0.4-1-1-1l0,0c-0.6,0-1,0.4-1,1v4c0,0.6,0.4,1,1,1l0,0c0.6,0,1-0.4,1-1v-1h10v1
	c0,0.6,0.4,1,1,1l0,0c0.6,0,1-0.4,1-1v-4c0-0.6-0.4-1-1-1l0,0C22.4,10,22,10.4,22,11z"/>
</svg>
