<?xml version="1.0" encoding="utf-8"?>
<!-- Generator: Adobe Illustrator 24.1.0, SVG Export Plug-In . SVG Version: 6.00 Build 0)  -->
<svg version="1.1" id="Layer_1" xmlns="http://www.w3.org/2000/svg" xmlns:xlink="http://www.w3.org/1999/xlink" x="0px" y="0px"
	 viewBox="0 0 24 24" style="enable-background:new 0 0 24 24;" xml:space="preserve">
<style type="text/css">
	.Black{fill:#727272;}
</style>
<path class="Black" d="M19,12c0-0.3,0-0.6-0.1-0.8L21,9.4l-0.8-1.9l-2.7,0.2c-0.3-0.4-0.7-0.8-1.2-1.2l0.2-2.7L14.6,3l-1.8,2.1
	C12.6,5,12.3,5,12,5s-0.6,0-0.8,0.1L9.4,3L7.5,3.8l0.2,2.7C7.3,6.8,6.9,7.2,6.5,7.7L3.8,7.5L3,9.4l2.1,1.8C5,11.4,5,11.7,5,12
	s0,0.6,0.1,0.8L3,14.6l0.8,1.9l2.7-0.2c0.3,0.4,0.7,0.8,1.2,1.2l-0.2,2.7L9.4,21l1.8-2.1c0.3,0,0.5,0.1,0.8,0.1s0.6,0,0.8-0.1
	l1.8,2.1l1.9-0.8l-0.2-2.7c0.4-0.3,0.8-0.7,1.2-1.2l2.7,0.2l0.8-1.9l-2.1-1.8C19,12.6,19,12.3,19,12z M12,15c-1.7,0-3-1.3-3-3
	s1.3-3,3-3s3,1.3,3,3S13.7,15,12,15z"/>
</svg>
