<?xml version="1.0" encoding="utf-8"?>
<!-- Generator: Adobe Illustrator 24.1.0, SVG Export Plug-In . SVG Version: 6.00 Build 0)  -->
<svg version="1.1" id="Layer_1" xmlns="http://www.w3.org/2000/svg" xmlns:xlink="http://www.w3.org/1999/xlink" x="0px" y="0px"
	 viewBox="0 0 16 16" style="enable-background:new 0 0 16 16;" xml:space="preserve">
<style type="text/css">
	.Black{fill:#FFFFFF;}
</style>
<path class="Black" d="M15,3H1V2c0-0.6,0.4-1,1-1h12c0.6,0,1,0.4,1,1V3z"/>
<path class="Black" d="M1,4v10c0,0.6,0.4,1,1,1h12c0.6,0,1-0.4,1-1V4H1z M6,12H4v-2h2V12z M6,9H4V7h2V9z M9,12H7v-2h2V12z M9,9H7V7
	h2V9z M12,12h-2v-2h2V12z M12,9h-2V7h2V9z"/>
</svg>
