<?xml version="1.0" encoding="utf-8"?>
<!-- Generator: Adobe Illustrator 24.1.0, SVG Export Plug-In . SVG Version: 6.00 Build 0)  -->
<svg version="1.1" id="Layer_1" xmlns="http://www.w3.org/2000/svg" xmlns:xlink="http://www.w3.org/1999/xlink" x="0px" y="0px"
	 viewBox="0 0 100 100" style="enable-background:new 0 0 100 100;" xml:space="preserve">
<style type="text/css">
	.Black{fill:#727272;}
</style>
<path class="Black" d="M50,8L50,8C26.8,8,8,26.8,8,50c0,23.2,18.8,42,42,42v0c23.2,0,42-18.8,42-42C92,26.8,73.2,8,50,8z M50,20
	c6.6,0,12,5.4,12,12c0,7.7-5.4,16-12,16s-12-8.3-12-16C38,25.4,43.4,20,50,20z M50,81L50,81c-9.9-0.3-18.5-5.5-24-13
	c4.5-6.1,13.5-10,24-10v0c10.5,0,19.5,3.9,24,10C68.5,75.4,59.9,80.6,50,81z"/>
</svg>
