<?xml version="1.0" encoding="utf-8"?>
<!-- Generator: Adobe Illustrator 23.0.6, SVG Export Plug-In . SVG Version: 6.00 Build 0)  -->
<svg version="1.1" id="Layer_1" xmlns="http://www.w3.org/2000/svg" xmlns:xlink="http://www.w3.org/1999/xlink" x="0px" y="0px"
	 viewBox="0 0 32 32" style="enable-background:new 0 0 32 32;" xml:space="preserve">
<style type="text/css">
	.Black{fill:#fffffe;}
</style>
<path class="Black" d="M26.8,9.2L24,4l-1.3,2.3C21.6,4.9,19.9,4,18,4c-1.4,0-2.8,0.5-3.8,1.4c-0.7,0.6-1.7,0.6-2.4,0
	C10.8,4.6,9.4,4,8,4c-3.3,0-6,2.7-6,6v7c0,1.3,0.8,2.4,2,2.8V22c0,2.2,2,6,4,6s4-3.8,4-6v-0.9c0-0.6,0.4-1,1-1s1,0.4,1,1V22
	c0,2.2,1.8,6,4,6c2.2,0,4-3.8,4-6v-2.2c0.5-0.2,1-0.5,1.4-1L24,20l2.8-5.2L32,12L26.8,9.2z M22,17c0,0.6-0.4,1-1,1s-1,0.4-1,1v3
	c0,1.1-0.9,4-2,4s-2-2.9-2-4v-1l0,0c-0.1-1.6-1.4-2.9-3-2.9s-2.9,1.3-3,2.9l0,0v1c0,1.1-0.9,4-2,4s-2-2.9-2-4v-3c0-0.6-0.4-1-1-1
	s-1-0.4-1-1v-7c0-2.2,1.8-4,4-4c1,0,2,0.4,2.7,1.1C11.3,7.7,12.1,8,13,8s1.7-0.3,2.3-0.9C16,6.4,17,6,18,6c1.6,0,3,1,3.6,2.3
	l-0.5,0.8L16,12l5.2,2.8l0.8,1.5V17z M25.4,13.4L24,16l-1.4-2.6L22,13.1L20,12l2-1.1l0.6-0.3l1.2-2.2L24,8l1.4,2.6L28,12L25.4,13.4z
	"/>
</svg>
